<svg version="1.1" xmlns="http://www.w3.org/2000/svg" xmlns:xlink="http://www.w3.org/1999/xlink" width="800" height="800"><defs/><g transform="scale(2,2)"><g id="background-095e9e6e"><rect fill="white" stroke="none" x="0" y="0" width="400" height="400" class="dcg-svg-background"/></g><g id="background-images-095e9e6e"/><g id="graphpaper-095e9e6e"><g id="grid-095e9e6e"><g><path fill="none" stroke="rgb(0,0,0)" class="dcg-svg-minor-gridline" paint-order="fill stroke markers" d=" M 21.5 0 L 21.5 400" stroke-opacity="0.2" stroke-miterlimit="10" stroke-dasharray=""/><path fill="none" stroke="rgb(0,0,0)" class="dcg-svg-minor-gridline" paint-order="fill stroke markers" d=" M 45.5 0 L 45.5 400" stroke-opacity="0.2" stroke-miterlimit="10" stroke-dasharray=""/><path fill="none" stroke="rgb(0,0,0)" class="dcg-svg-minor-gridline" paint-order="fill stroke markers" d=" M 69.5 0 L 69.5 400" stroke-opacity="0.2" stroke-miterlimit="10" stroke-dasharray=""/><path fill="none" stroke="rgb(0,0,0)" class="dcg-svg-minor-gridline" paint-order="fill stroke markers" d=" M 93.5 0 L 93.5 400" stroke-opacity="0.2" stroke-miterlimit="10" stroke-dasharray=""/><path fill="none" stroke="rgb(0,0,0)" class="dcg-svg-minor-gridline" paint-order="fill stroke markers" d=" M 117.5 0 L 117.5 400" stroke-opacity="0.2" stroke-miterlimit="10" stroke-dasharray=""/><path fill="none" stroke="rgb(0,0,0)" class="dcg-svg-minor-gridline" paint-order="fill stroke markers" d=" M 165.5 0 L 165.5 400" stroke-opacity="0.2" stroke-miterlimit="10" stroke-dasharray=""/><path fill="none" stroke="rgb(0,0,0)" class="dcg-svg-minor-gridline" paint-order="fill stroke markers" d=" M 189.5 0 L 189.5 400" stroke-opacity="0.2" stroke-miterlimit="10" stroke-dasharray=""/><path fill="none" stroke="rgb(0,0,0)" class="dcg-svg-minor-gridline" paint-order="fill stroke markers" d=" M 212.5 0 L 212.5 400" stroke-opacity="0.2" stroke-miterlimit="10" stroke-dasharray=""/><path fill="none" stroke="rgb(0,0,0)" class="dcg-svg-minor-gridline" paint-order="fill stroke markers" d=" M 236.5 0 L 236.5 400" stroke-opacity="0.2" stroke-miterlimit="10" stroke-dasharray=""/><path fill="none" stroke="rgb(0,0,0)" class="dcg-svg-minor-gridline" paint-order="fill stroke markers" d=" M 260.5 0 L 260.5 400" stroke-opacity="0.2" stroke-miterlimit="10" stroke-dasharray=""/><path fill="none" stroke="rgb(0,0,0)" class="dcg-svg-minor-gridline" paint-order="fill stroke markers" d=" M 284.5 0 L 284.5 400" stroke-opacity="0.2" stroke-miterlimit="10" stroke-dasharray=""/><path fill="none" stroke="rgb(0,0,0)" class="dcg-svg-minor-gridline" paint-order="fill stroke markers" d=" M 308.5 0 L 308.5 400" stroke-opacity="0.2" stroke-miterlimit="10" stroke-dasharray=""/><path fill="none" stroke="rgb(0,0,0)" class="dcg-svg-minor-gridline" paint-order="fill stroke markers" d=" M 332.5 0 L 332.5 400" stroke-opacity="0.2" stroke-miterlimit="10" stroke-dasharray=""/><path fill="none" stroke="rgb(0,0,0)" class="dcg-svg-minor-gridline" paint-order="fill stroke markers" d=" M 356.5 0 L 356.5 400" stroke-opacity="0.2" stroke-miterlimit="10" stroke-dasharray=""/><path fill="none" stroke="rgb(0,0,0)" class="dcg-svg-minor-gridline" paint-order="fill stroke markers" d=" M 380.5 0 L 380.5 400" stroke-opacity="0.2" stroke-miterlimit="10" stroke-dasharray=""/><path fill="none" stroke="rgb(0,0,0)" class="dcg-svg-minor-gridline" paint-order="fill stroke markers" d=" M 0 378.5 L 400 378.5" stroke-opacity="0.2" stroke-miterlimit="10" stroke-dasharray=""/><path fill="none" stroke="rgb(0,0,0)" class="dcg-svg-minor-gridline" paint-order="fill stroke markers" d=" M 0 354.5 L 400 354.5" stroke-opacity="0.2" stroke-miterlimit="10" stroke-dasharray=""/><path fill="none" stroke="rgb(0,0,0)" class="dcg-svg-minor-gridline" paint-order="fill stroke markers" d=" M 0 331.5 L 400 331.5" stroke-opacity="0.2" stroke-miterlimit="10" stroke-dasharray=""/><path fill="none" stroke="rgb(0,0,0)" class="dcg-svg-minor-gridline" paint-order="fill stroke markers" d=" M 0 307.5 L 400 307.5" stroke-opacity="0.2" stroke-miterlimit="10" stroke-dasharray=""/><path fill="none" stroke="rgb(0,0,0)" class="dcg-svg-minor-gridline" paint-order="fill stroke markers" d=" M 0 283.5 L 400 283.5" stroke-opacity="0.2" stroke-miterlimit="10" stroke-dasharray=""/><path fill="none" stroke="rgb(0,0,0)" class="dcg-svg-minor-gridline" paint-order="fill stroke markers" d=" M 0 259.5 L 400 259.5" stroke-opacity="0.2" stroke-miterlimit="10" stroke-dasharray=""/><path fill="none" stroke="rgb(0,0,0)" class="dcg-svg-minor-gridline" paint-order="fill stroke markers" d=" M 0 235.5 L 400 235.5" stroke-opacity="0.2" stroke-miterlimit="10" stroke-dasharray=""/><path fill="none" stroke="rgb(0,0,0)" class="dcg-svg-minor-gridline" paint-order="fill stroke markers" d=" M 0 187.5 L 400 187.5" stroke-opacity="0.2" stroke-miterlimit="10" stroke-dasharray=""/><path fill="none" stroke="rgb(0,0,0)" class="dcg-svg-minor-gridline" paint-order="fill stroke markers" d=" M 0 163.5 L 400 163.5" stroke-opacity="0.2" stroke-miterlimit="10" stroke-dasharray=""/><path fill="none" stroke="rgb(0,0,0)" class="dcg-svg-minor-gridline" paint-order="fill stroke markers" d=" M 0 139.5 L 400 139.5" stroke-opacity="0.2" stroke-miterlimit="10" stroke-dasharray=""/><path fill="none" stroke="rgb(0,0,0)" class="dcg-svg-minor-gridline" paint-order="fill stroke markers" d=" M 0 116.5 L 400 116.5" stroke-opacity="0.2" stroke-miterlimit="10" stroke-dasharray=""/><path fill="none" stroke="rgb(0,0,0)" class="dcg-svg-minor-gridline" paint-order="fill stroke markers" d=" M 0 92.5 L 400 92.5" stroke-opacity="0.2" stroke-miterlimit="10" stroke-dasharray=""/><path fill="none" stroke="rgb(0,0,0)" class="dcg-svg-minor-gridline" paint-order="fill stroke markers" d=" M 0 68.5 L 400 68.5" stroke-opacity="0.2" stroke-miterlimit="10" stroke-dasharray=""/><path fill="none" stroke="rgb(0,0,0)" class="dcg-svg-minor-gridline" paint-order="fill stroke markers" d=" M 0 44.5 L 400 44.5" stroke-opacity="0.2" stroke-miterlimit="10" stroke-dasharray=""/><path fill="none" stroke="rgb(0,0,0)" class="dcg-svg-minor-gridline" paint-order="fill stroke markers" d=" M 0 20.5 L 400 20.5" stroke-opacity="0.2" stroke-miterlimit="10" stroke-dasharray=""/><path fill="none" stroke="rgb(0,0,0)" class="dcg-svg-major-gridline" paint-order="fill stroke markers" d=" M 45.5 0 L 45.5 400" stroke-opacity="0.2500000000000001" stroke-miterlimit="10" stroke-dasharray=""/><path fill="none" stroke="rgb(0,0,0)" class="dcg-svg-major-gridline" paint-order="fill stroke markers" d=" M 236.5 0 L 236.5 400" stroke-opacity="0.2500000000000001" stroke-miterlimit="10" stroke-dasharray=""/><path fill="none" stroke="rgb(0,0,0)" class="dcg-svg-major-gridline" paint-order="fill stroke markers" d=" M 332.5 0 L 332.5 400" stroke-opacity="0.2500000000000001" stroke-miterlimit="10" stroke-dasharray=""/><path fill="none" stroke="rgb(0,0,0)" class="dcg-svg-major-gridline" paint-order="fill stroke markers" d=" M 0 307.5 L 400 307.5" stroke-opacity="0.2500000000000001" stroke-miterlimit="10" stroke-dasharray=""/><path fill="none" stroke="rgb(0,0,0)" class="dcg-svg-major-gridline" paint-order="fill stroke markers" d=" M 0 116.5 L 400 116.5" stroke-opacity="0.2500000000000001" stroke-miterlimit="10" stroke-dasharray=""/><path fill="none" stroke="rgb(0,0,0)" class="dcg-svg-major-gridline" paint-order="fill stroke markers" d=" M 0 20.5 L 400 20.5" stroke-opacity="0.2500000000000001" stroke-miterlimit="10" stroke-dasharray=""/></g></g><g id="axis-095e9e6e"><g id="yaxis-095e9e6e"><title>Y axis</title><g><path fill="none" stroke="rgb(0,0,0)" class="dcg-svg-axis-line" paint-order="fill stroke markers" d=" M 141 0 L 141 400" stroke-opacity="0.9" stroke-miterlimit="10" stroke-width="1.5" stroke-dasharray=""/></g></g><g id="xaxis-095e9e6e"><title>X axis</title><g><path fill="none" stroke="rgb(0,0,0)" class="dcg-svg-axis-line" paint-order="fill stroke markers" d=" M 0 212 L 400 212" stroke-opacity="0.9" stroke-miterlimit="10" stroke-width="1.5" stroke-dasharray=""/></g></g><g><g class="dcg-svg-axis-value"><text fill="none" stroke="#ffffff" font-family="Arial" font-size="14px" font-style="normal" font-weight="normal" text-decoration="normal" x="132.3244155521429" y="227.4115515581989" text-anchor="middle" stroke-miterlimit="2" stroke-width="3" stroke-dasharray="">0</text><text fill="#000000" stroke="none" font-family="Arial" font-size="14px" font-style="normal" font-weight="normal" text-decoration="normal" x="132.3244155521429" y="227.4115515581989" text-anchor="middle">0</text></g><g class="dcg-svg-axis-value"><text fill="none" stroke="#ffffff" font-family="Arial" font-size="14px" font-style="normal" font-weight="normal" text-decoration="normal" x="43.3169187651572" y="227.4115515581989" text-anchor="middle" stroke-miterlimit="2" stroke-width="3" stroke-dasharray="">-2</text><text fill="#000000" stroke="none" font-family="Arial" font-size="14px" font-style="normal" font-weight="normal" text-decoration="normal" x="43.3169187651572" y="227.4115515581989" text-anchor="middle">-2</text></g><g class="dcg-svg-axis-value"><text fill="none" stroke="#ffffff" font-family="Arial" font-size="14px" font-style="normal" font-weight="normal" text-decoration="normal" x="236.78699046412862" y="227.4115515581989" text-anchor="middle" stroke-miterlimit="2" stroke-width="3" stroke-dasharray="">2</text><text fill="#000000" stroke="none" font-family="Arial" font-size="14px" font-style="normal" font-weight="normal" text-decoration="normal" x="236.78699046412862" y="227.4115515581989" text-anchor="middle">2</text></g><g class="dcg-svg-axis-value"><text fill="none" stroke="#ffffff" font-family="Arial" font-size="14px" font-style="normal" font-weight="normal" text-decoration="normal" x="332.35649896986433" y="227.4115515581989" text-anchor="middle" stroke-miterlimit="2" stroke-width="3" stroke-dasharray="">4</text><text fill="#000000" stroke="none" font-family="Arial" font-size="14px" font-style="normal" font-weight="normal" text-decoration="normal" x="332.35649896986433" y="227.4115515581989" text-anchor="middle">4</text></g><g class="dcg-svg-axis-value"><text fill="none" stroke="#ffffff" font-family="Arial" font-size="14px" font-style="normal" font-weight="normal" text-decoration="normal" x="129.9933608646429" y="310.9810600639346" text-anchor="middle" stroke-miterlimit="2" stroke-width="3" stroke-dasharray="">-2</text><text fill="#000000" stroke="none" font-family="Arial" font-size="14px" font-style="normal" font-weight="normal" text-decoration="normal" x="129.9933608646429" y="310.9810600639346" text-anchor="middle">-2</text></g><g class="dcg-svg-axis-value"><text fill="none" stroke="#ffffff" font-family="Arial" font-size="14px" font-style="normal" font-weight="normal" text-decoration="normal" x="132.3244155521429" y="119.84204305246321" text-anchor="middle" stroke-miterlimit="2" stroke-width="3" stroke-dasharray="">2</text><text fill="#000000" stroke="none" font-family="Arial" font-size="14px" font-style="normal" font-weight="normal" text-decoration="normal" x="132.3244155521429" y="119.84204305246321" text-anchor="middle">2</text></g><g class="dcg-svg-axis-value"><text fill="none" stroke="#ffffff" font-family="Arial" font-size="14px" font-style="normal" font-weight="normal" text-decoration="normal" x="132.3244155521429" y="24.272534546727492" text-anchor="middle" stroke-miterlimit="2" stroke-width="3" stroke-dasharray="">4</text><text fill="#000000" stroke="none" font-family="Arial" font-size="14px" font-style="normal" font-weight="normal" text-decoration="normal" x="132.3244155521429" y="24.272534546727492" text-anchor="middle">4</text></g></g></g></g><g id="expressions-095e9e6e"><g id="sketch-095e9e6e"><title>Expression 1</title><path fill="#c74440" stroke="none" paint-order="stroke fill markers" d="" fill-opacity="0.4"/><g><path fill="none" stroke="#c74440" class="dcg-svg-curve" paint-order="fill stroke markers" d=" M 0 209.1156902488311 L 0 209.1156902488311 L 14.648437500000014 208.22321975695982 L 27.34375 207.19453827205825 L 38.4765625 206.03781542480834 L 48.4375 204.74783008541147 L 57.51953125 203.31276513515348 L 65.8203125 201.739896993987 L 73.4375 200.03531661644044 L 80.56640625 198.17409081965917 L 87.20703125 196.17190473115977 L 93.45703125 194.01557981873438 L 99.31640625000001 191.7211415630913 L 104.88281250000003 189.2647624645619 L 110.25390625000001 186.6072864730576 L 115.42968750000001 183.7477598278257 L 120.41015625000001 180.68773065044704 L 125.19531250000001 177.43150809575306 L 129.8828125 173.90943554497727 L 134.375 170.19394856343976 L 138.8671875 166.11222820199936 L 143.26171875 161.73020391644658 L 147.55859375 157.03770274580717 L 151.85546875 151.90369186552036 L 156.15234375 146.28663035388485 L 160.35156250000003 140.28696534348725 L 164.35546875 134.053823726318 L 168.26171875000003 127.44806111975666 L 172.0703125 120.46605848956442 L 175.78125 113.10629218302088 L 179.39453125000003 105.36952059513116 L 182.91015625000003 97.2589618872315 L 186.328125 88.78045977525912 L 189.74609375 79.67328779556874 L 193.06640625 70.18014914199674 L 196.38671875000003 60.0039247511136 L 199.70703125000003 49.095462688923135 L 202.92968750000003 37.7577209869242 L 206.15234375 25.62897627827101 L 209.375 12.654042462152347 L 212.5 -0.7916073676853728 L 213.5250360856469 -5.5" stroke-linecap="round" stroke-linejoin="round" stroke-miterlimit="10" stroke-width="2.5" stroke-opacity="0.9" stroke-dasharray=""/></g></g><g id="sketch-095e9e6e"><title>Expression 2</title><path fill="#2d70b3" stroke="none" paint-order="stroke fill markers" d="" fill-opacity="0.4"/><g><path fill="none" stroke="#2d70b3" class="dcg-svg-curve" paint-order="fill stroke markers" d=" M 142.06579636557032 405.5 L 142.06579636557032 405.5 L 142.1875 397.8277750911391 L 142.67578125 378.3453814470968 L 143.26171875 362.2059074867441 L 143.9453125 348.4208608938162 L 144.72656250000003 336.38639337400974 L 145.60546875 325.70571315819336 L 146.58203125000003 316.1037571331717 L 147.65625000000003 307.38185153411956 L 148.828125 299.39174156248487 L 150.19531250000003 291.49719376217683 L 151.66015625 284.2748892892412 L 153.22265625 277.61192460063967 L 154.8828125 271.422639657702 L 156.73828125 265.33873223623374 L 158.69140625 259.6748667152431 L 160.83984375 254.1337421014235 L 163.18359375 248.74213719601033 L 165.72265625 243.51527839498615 L 168.45703125 238.46033736968448 L 171.48437500000003 233.4245629786053 L 174.80468750000003 228.45061299021125 L 178.41796875000003 223.56812735788935 L 182.32421875 218.79681136534833 L 186.5234375 214.14895688071658 L 190.91796875 209.7252242465077 L 195.60546875 205.41845264042527 L 200.58593750000003 201.23156511738893 L 205.859375 197.16509849644353 L 211.42578125 193.21789488127612 L 217.3828125 189.32631157576864 L 223.73046875 185.50117462435028 L 230.56640625 181.69781851629634 L 237.89062500000003 177.9330284740034 L 245.70312500000006 174.21948189563443 L 254.1015625 170.52515741758089 L 263.0859375 166.8657639759388 L 272.75390625 163.21780060789624 L 283.10546875 159.59790875153547 L 294.140625 156.018948150387 L 306.0546875 152.4339977092135 L 318.84765625 148.86230892389003 L 332.51953125 145.31907549236186 L 347.26562500000006 141.77075851268134 L 363.08593750000006 138.23589001013136 L 380.078125 134.70958374009527 L 398.33984375 131.18919540046312 L 400.00000000000006 130.88165641272718" stroke-linecap="round" stroke-linejoin="round" stroke-miterlimit="10" stroke-width="2.5" stroke-opacity="0.9" stroke-dasharray=""/></g></g><g id="sketch-095e9e6e"><title>Expression 3</title><path fill="#388c46" stroke="none" paint-order="stroke fill markers" d="" fill-opacity="0.4"/><g><path fill="none" stroke="#388c46" class="dcg-svg-curve" paint-order="fill stroke markers" d=" M 0 352.8210335165918 L 7.778174593052023 345.04285892353977 M 12.727922061357857 340.09311145523395 L 20.50609665440988 332.3149368621819 M 25.455844122715714 327.3651893938761 L 33.23401871576774 319.5870148008241 M 38.183766184073576 314.63726733251826 L 45.9619407771256 306.85909273946623 M 50.91168824543143 301.9093452711604 L 58.68986283848345 294.1311706781084 M 63.63961030678928 289.1814232098026 L 71.41778489984131 281.40324861675055 M 76.36753236814714 276.45350114844473 L 84.14570696119917 268.6753265553927 M 89.095454429505 263.7255790870869 L 96.87362902255703 255.94740449403486 M 101.82337649086286 250.997657025729 L 109.60155108391488 243.21948243267698 M 114.55129855222071 238.26973496437114 L 122.32947314527274 230.4915603713191 M 127.27922061357857 225.54181290301327 L 135.0573952066306 217.76363830996124 M 140.00714267493643 212.8138908416554 L 147.78531726798846 205.03571624860336 M 152.7350647362943 200.08596878029752 L 160.51323932934633 192.3077941872455 M 165.46298679765218 187.35804671893965 L 173.2411613907042 179.57987212588762 M 178.19090885901005 174.63012465758177 L 185.96908345206208 166.85195006452975 M 190.91883092036792 161.9022025962239 L 198.69700551341995 154.12402800317187 M 203.6467529817258 149.17428053486606 L 211.42492757477783 141.39610594181403 M 216.37467504308364 136.4463584735082 L 224.15284963613567 128.66818388045618 M 229.1025971044415 123.71843641215035 L 236.88077169749351 115.94026181909834 M 241.83051916579933 110.99051435079251 L 249.60869375885136 103.2123397577405 M 254.55844122715718 98.26259228943466 L 262.3366158202092 90.48441769638265 M 267.286363288515 85.53467022807682 L 275.06453788156705 77.7564956350248 M 280.01428534987286 72.80674816671898 L 287.7924599429249 65.02857357366696 M 292.7422074112307 60.07882610536113 L 300.52038200428274 52.30065151230911 M 305.47012947258855 47.35090404400328 L 313.2483040656406 39.57272945095126 M 318.1980515339464 34.62298198264543 L 325.9762261269984 26.844807389593406 M 330.92597359530424 21.895059921287576 L 338.70414818835627 14.116885328235554 M 343.6538956566621 9.167137859929722 L 351.4320702497141 1.3889632668777008 M 356.38181771802 -3.560784201428132 L 358.32103351659185 -5.5" stroke-linecap="round" stroke-linejoin="round" stroke-miterlimit="10" stroke-width="2.5" stroke-opacity="0.9" stroke-dasharray=""/></g></g></g><g id="labels-095e9e6e"/></g></svg>