<svg xmlns="http://www.w3.org/2000/svg" xmlns:xlink="http://www.w3.org/1999/xlink" x="0" y="0" width="662" height="302" style="
        width:662px;
        height:302px;
        background: transparent;
        fill: none;
">
        
        
        <svg xmlns="http://www.w3.org/2000/svg" class="role-diagram-draw-area"><g class="shapes-region" style="stroke: black; fill: none;"><g class="composite-shape axis2d" style="stroke-width: 1px; stroke: rgb(0, 0, 0);"><path class="real" d=" M149.06,264.29 L396.82,264.29 M173.84,43.38 L173.84,288.83"/><path d=" M389.82,259.29 L396.82,264.29 L389.82,269.29"/><path d=" M168.84,50.38 L173.84,43.38 L178.84,50.38"/></g><g class="arrow-line"><path class="connection real" stroke-dasharray="" d="  M200,220 C232,216 218,140 260,140 C302,140 292,90 320,90 C348,90 341,288 380,120" style="stroke: rgb(0, 0, 0); stroke-width: 1px; fill: none; fill-opacity: 1;"/></g><g class="arrow-line"><defs><!-- react-text: 124 --> <!-- /react-text --><linearGradient id="_pgf5087pxe7r" gradientTransform=" translate(0,0) rotate(0 0.5 0.5)" x1="0" y1="0.5" x2="1" y2="0.5"><!-- react-text: 126 --> <!-- /react-text --><stop offset="0" style="stop-color: rgb(208, 2, 27); stop-opacity: 1;"/><stop offset="0.49" style="stop-color: rgb(208, 2, 27); stop-opacity: 1;"/><stop offset="0.5" style="stop-color: rgb(5, 193, 255); stop-opacity: 1;"/><stop offset="1" style="stop-color: rgb(5, 193, 255); stop-opacity: 0.9;"/></linearGradient></defs><path class="connection real" stroke-dasharray="6 6" d="  M200,220 L200.12,265.45" style="stroke: rgb(208, 2, 27); stroke-opacity: 1; stroke-width: 1px; fill: url(&quot;#_pgf5087pxe7r&quot;); fill-opacity: 1;"/></g><g class="arrow-line"><path class="connection real" stroke-dasharray="6 6" d="  M380,120 L380,264.26" style="stroke: rgb(208, 2, 27); stroke-opacity: 1; stroke-width: 1px; fill: none; fill-opacity: 1;"/></g><g class="composite-shape"><defs><!-- react-text: 138 --> <!-- /react-text --><linearGradient id="_pgfuyeikijan" gradientTransform=" translate(0,0) rotate(0 0.5 0.5)" x1="0" y1="0.5" x2="1" y2="0.5"><!-- react-text: 140 --> <!-- /react-text --><stop offset="0" style="stop-color: rgb(5, 193, 255); stop-opacity: 1;"/><stop offset="0.49" style="stop-color: rgb(5, 193, 255); stop-opacity: 1;"/><stop offset="0.5" style="stop-color: rgb(208, 2, 27); stop-opacity: 1;"/><stop offset="1" style="stop-color: rgb(208, 2, 27); stop-opacity: 1;"/></linearGradient></defs><path class="real" d=" M193.45,262.79 C193.45,259.11 196.44,256.12 200.12,256.12 C203.8,256.12 206.78,259.11 206.78,262.79 C206.78,266.47 203.8,269.45 200.12,269.45 C196.44,269.45 193.45,266.47 193.45,262.79 Z" style="stroke-width: 1px; stroke: none; stroke-opacity: 1; fill: url(&quot;#_pgfuyeikijan&quot;); fill-opacity: 1;"/></g><g class="composite-shape"><defs><!-- react-text: 148 --> <!-- /react-text --><linearGradient id="_pgf7mvu2kwvk" gradientTransform=" translate(0,0) rotate(0 0.5 0.5)" x1="0" y1="0.5" x2="1" y2="0.5"><!-- react-text: 150 --> <!-- /react-text --><stop offset="0" style="stop-color: rgb(5, 193, 255); stop-opacity: 1;"/><stop offset="0.34" style="stop-color: rgb(5, 193, 255); stop-opacity: 1;"/><stop offset="0.36" style="stop-color: rgb(208, 2, 27); stop-opacity: 1;"/><stop offset="0.5" style="stop-color: rgb(255, 0, 0); stop-opacity: 1;"/><stop offset="0.69" style="stop-color: rgb(208, 2, 27); stop-opacity: 1;"/><stop offset="0.7" style="stop-color: rgb(0, 0, 0); stop-opacity: 1;"/><stop offset="1" style="stop-color: rgb(0, 0, 0); stop-opacity: 1;"/></linearGradient></defs><path class="real" d=" M312.33,264 C312.33,260.32 315.32,257.33 319,257.33 C322.68,257.33 325.67,260.32 325.67,264 C325.67,267.68 322.68,270.67 319,270.67 C315.32,270.67 312.33,267.68 312.33,264 Z" style="stroke-width: 1px; stroke: none; stroke-opacity: 1; fill: url(&quot;#_pgf7mvu2kwvk&quot;); fill-opacity: 1;"/></g><g class="composite-shape"><path class="real" d=" M373.33,264 C373.33,260.32 376.32,257.33 380,257.33 C383.68,257.33 386.67,260.32 386.67,264 C386.67,267.68 383.68,270.67 380,270.67 C376.32,270.67 373.33,267.68 373.33,264 Z" style="stroke-width: 1px; stroke: none; stroke-opacity: 1; fill: rgb(208, 2, 27); fill-opacity: 1;"/></g><g class="composite-shape"><path class="real" d=" M253.33,264 C253.33,260.32 256.32,257.33 260,257.33 C263.68,257.33 266.67,260.32 266.67,264 C266.67,267.68 263.68,270.67 260,270.67 C256.32,270.67 253.33,267.68 253.33,264 Z" style="stroke-width: 1px; stroke: none; stroke-opacity: 1; fill: rgb(0, 0, 0); fill-opacity: 1;"/></g><g class="composite-shape"><defs><!-- react-text: 165 --> <!-- /react-text --><linearGradient id="_pgfuyqtkr2lw" gradientTransform=" translate(0,0) rotate(0 0.5 0.5)" x1="0" y1="0.5" x2="1" y2="0.5"><!-- react-text: 167 --> <!-- /react-text --><stop offset="0" style="stop-color: rgb(208, 2, 27); stop-opacity: 1;"/><stop offset="0.49" style="stop-color: rgb(208, 2, 27); stop-opacity: 1;"/><stop offset="0.5" style="stop-color: rgb(0, 0, 0); stop-opacity: 1;"/><stop offset="1" style="stop-color: rgb(0, 0, 0); stop-opacity: 1;"/></linearGradient></defs><path class="real" d=" M349,263.67 C349,259.98 351.98,257 355.67,257 C359.35,257 362.33,259.98 362.33,263.67 C362.33,267.35 359.35,270.33 355.67,270.33 C351.98,270.33 349,267.35 349,263.67 Z" style="stroke-width: 1px; stroke: none; stroke-opacity: 1; fill: url(&quot;#_pgfuyqtkr2lw&quot;); fill-opacity: 1;"/></g><g class="arrow-line"><path class="connection real" stroke-dasharray="6 6" d="  M260,264 L260,140" style="stroke: rgb(0, 0, 0); stroke-width: 1px; fill: none; fill-opacity: 1;"/></g><g class="arrow-line"><path class="connection real" stroke-dasharray="6 6" d="  M319,257.33 L320,210" style="stroke: rgb(5, 193, 255); stroke-opacity: 1; stroke-width: 1px; fill: none; fill-opacity: 1;"/></g><g class="arrow-line"><path class="connection real" stroke-dasharray="6 6" d="  M320,204 L320,154" style="stroke: rgb(208, 2, 27); stroke-opacity: 1; stroke-width: 1px; fill: none; fill-opacity: 1;"/></g><g class="arrow-line"><path class="connection real" stroke-dasharray="6 6" d="  M320,150 L320,90" style="stroke: rgb(0, 0, 0); stroke-width: 1px; fill: none; fill-opacity: 1;"/></g><g class="arrow-line"><path class="connection real" stroke-dasharray="6 6" d="  M356,216 L355.67,259.67" style="stroke: rgb(208, 2, 27); stroke-opacity: 1; stroke-width: 1px; fill: none; fill-opacity: 1;"/></g><g class="arrow-line"><path class="connection real" stroke-dasharray="6 6" d="  M356,190 L356,214" style="stroke: rgb(0, 0, 0); stroke-opacity: 1; stroke-width: 1px; fill: none; fill-opacity: 1;"/></g><g/></g><g/><g/><g/></svg>
        <svg xmlns="http://www.w3.org/2000/svg" xmlns:xlink="http://www.w3.org/1999/xlink" width="660" height="300" style="width:660px;height:300px;font-family:Asana-Math, Asana;background:transparent;"><g><g><g><g><g><g><g transform="matrix(1,0,0,1,135.078125,38.84375)"><path transform="matrix(0.017,0,0,-0.017,0,0)" d="M345 437L329 437L350 549C366 635 394 673 440 673C470 673 497 658 512 634L522 638C527 654 537 685 545 705L550 720C534 727 503 733 480 733C469 733 453 730 445 726C421 715 339 654 316 630C294 608 282 578 271 521L256 442C215 422 195 414 170 405L165 383L246 383L237 327C207 132 170 -54 148 -123C130 -182 100 -213 64 -213C41 -213 30 -206 12 -184L-2 -188C-6 -211 -20 -259 -25 -268C-16 -273 -1 -276 10 -276C51 -276 105 -245 144 -198C215 -114 235 -18 319 383L423 383C427 402 434 425 440 439L436 446C407 439 408 437 345 437Z" stroke="rgb(0,0,0)" stroke-opacity="1" stroke-width="8" fill="rgb(0,0,0)" fill-opacity="1"></path></g></g><g><g transform="matrix(1,0,0,1,144.421875,38.84375)"><path transform="matrix(0.017,0,0,-0.017,0,0)" d="M146 266C146 526 243 632 301 700L282 726C225 675 60 542 60 266C60 159 85 58 133 -32C168 -99 200 -138 282 -215L301 -194C255 -137 146 -15 146 266Z" stroke="rgb(0,0,0)" stroke-opacity="1" stroke-width="8" fill="rgb(0,0,0)" fill-opacity="1"></path></g></g><g><g transform="matrix(1,0,0,1,150.0843505859375,38.84375)"><path transform="matrix(0.017,0,0,-0.017,0,0)" d="M9 1C24 -7 40 -11 52 -11C85 -11 124 18 155 65L231 182L242 113C255 28 278 -11 314 -11C336 -11 368 6 400 35L449 79L440 98C404 68 379 53 363 53C348 53 335 63 325 83C316 102 305 139 300 168L282 269L317 318C364 383 391 406 422 406C438 406 450 398 455 383L469 387L484 472C472 479 463 482 454 482C414 482 374 446 312 354L275 299L269 347C257 446 230 482 171 482C145 482 123 474 114 461L56 378L73 368C103 402 123 416 142 416C175 416 197 375 214 277L225 215L185 153C142 86 108 54 80 54C65 54 54 58 52 63L41 91L21 88C21 53 13 27 9 1Z" stroke="rgb(0,0,0)" stroke-opacity="1" stroke-width="8" fill="rgb(0,0,0)" fill-opacity="1"></path></g></g><g><g transform="matrix(1,0,0,1,158.5625,38.84375)"><path transform="matrix(0.017,0,0,-0.017,0,0)" d="M51 726L32 700C87 636 187 526 187 266C187 -10 83 -131 32 -194L51 -215C104 -165 273 -23 273 265C273 542 108 675 51 726Z" stroke="rgb(0,0,0)" stroke-opacity="1" stroke-width="8" fill="rgb(0,0,0)" fill-opacity="1"></path></g></g></g></g></g></g></g><g><g><g><g><g><g><g transform="matrix(1,0,0,1,407.671875,270.28125)"><path transform="matrix(0.017,0,0,-0.017,0,0)" d="M9 1C24 -7 40 -11 52 -11C85 -11 124 18 155 65L231 182L242 113C255 28 278 -11 314 -11C336 -11 368 6 400 35L449 79L440 98C404 68 379 53 363 53C348 53 335 63 325 83C316 102 305 139 300 168L282 269L317 318C364 383 391 406 422 406C438 406 450 398 455 383L469 387L484 472C472 479 463 482 454 482C414 482 374 446 312 354L275 299L269 347C257 446 230 482 171 482C145 482 123 474 114 461L56 378L73 368C103 402 123 416 142 416C175 416 197 375 214 277L225 215L185 153C142 86 108 54 80 54C65 54 54 58 52 63L41 91L21 88C21 53 13 27 9 1Z" stroke="rgb(0,0,0)" stroke-opacity="1" stroke-width="8" fill="rgb(0,0,0)" fill-opacity="1"></path></g></g></g></g></g></g></g><g><g><g><g><g><g><g transform="matrix(1,0,0,1,196.109375,285.453125)"><path transform="matrix(0.017,0,0,-0.017,0,0)" d="M271 204L242 77C238 60 236 42 236 26C236 4 245 -9 260 -9C283 -9 324 17 406 85L399 106C375 86 346 59 324 59C315 59 309 68 309 82C309 87 309 90 310 93L402 472L392 481L359 463C318 478 301 482 274 482C246 482 226 477 199 464C137 433 104 403 79 354C35 265 4 145 4 67C4 23 19 -11 38 -11C75 -11 155 41 271 204ZM319 414C297 305 278 253 244 201C187 117 126 59 94 59C82 59 76 72 76 99C76 163 104 280 139 360C163 415 186 433 234 433C257 433 275 429 319 414Z" stroke="rgb(0,0,0)" stroke-opacity="1" stroke-width="8" fill="rgb(0,0,0)" fill-opacity="1"></path></g></g></g></g></g></g></g><g><g><g><g><g><g><g transform="matrix(1,0,0,1,376.328125,286)"><path transform="matrix(0.017,0,0,-0.017,0,0)" d="M235 722L223 733C171 707 135 698 63 691L59 670L107 670C131 670 141 663 141 646C141 639 140 628 139 622L38 71C37 68 37 64 37 61C37 22 85 -11 140 -11C177 -11 228 8 271 39C367 107 433 244 433 376C433 414 424 453 412 468C405 477 392 482 377 482C353 482 323 474 295 460C244 433 211 403 149 324ZM322 424C348 424 361 401 361 352C361 288 340 202 310 137C277 68 237 36 183 36C137 36 112 59 112 101C112 135 127 276 208 361C241 395 293 424 322 424Z" stroke="rgb(0,0,0)" stroke-opacity="1" stroke-width="8" fill="rgb(0,0,0)" fill-opacity="1"></path></g></g></g></g></g></g></g></svg>
</svg>
