<svg xmlns="http://www.w3.org/2000/svg" xmlns:xlink="http://www.w3.org/1999/xlink" x="0" y="0" width="662" height="302" style="
        width:662px;
        height:302px;
        background: transparent;
        fill: none;
">
        
        
        <svg xmlns="http://www.w3.org/2000/svg" class="role-diagram-draw-area"><g class="shapes-region" style="stroke: black; fill: none;"><g class="composite-shape axis2d" style="stroke-width: 1px; stroke: rgb(0, 0, 0);"><path class="real" d=" M149.06,264.29 L396.82,264.29 M173.84,43.38 L173.84,288.83"/><path d=" M389.82,259.29 L396.82,264.29 L389.82,269.29"/><path d=" M168.84,50.38 L173.84,43.38 L178.84,50.38"/></g><g class="arrow-line"><path class="connection real" stroke-dasharray="" d="  M204.12,207.01 C283.53,275.97 241.18,55.06 373.53,125.19" style="stroke: rgb(0, 0, 0); stroke-width: 1px; fill: none; fill-opacity: 1;"/></g><g class="arrow-line"><path class="connection real" stroke-dasharray="6 6" d="  M204.12,207.01 L204.12,265.45" style="stroke: rgb(0, 0, 0); stroke-width: 1px; fill: none; fill-opacity: 1;"/></g><g class="arrow-line"><path class="connection real" stroke-dasharray="6 6" d="  M373.53,125.19 L373.53,265.45" style="stroke: rgb(0, 0, 0); stroke-width: 1px; fill: none; fill-opacity: 1;"/></g><g class="arrow-line"><path class="connection real" stroke-dasharray="6 6" d="  M204.12,207.01 L172.35,207.01" style="stroke: rgb(189, 16, 224); stroke-width: 1px; fill: none; fill-opacity: 1; stroke-opacity: 1;"/></g><g class="arrow-line"><path class="connection real" stroke-dasharray="6 6" d="  M373.53,125.19 L172.35,125.19" style="stroke: rgb(189, 16, 224); stroke-opacity: 1; stroke-width: 1px; fill: none; fill-opacity: 1;"/></g><g class="arrow-line"><path class="connection real" stroke-dasharray="" d="  M204.12,207.01 L373.53,125.19" style="stroke: rgb(74, 144, 226); stroke-width: 1px; fill: none; fill-opacity: 1; stroke-opacity: 1;"/></g><g class="arrow-line"><path class="connection real" stroke-dasharray="" d="  M263.41,136.88 L358.71,90.13" style="stroke: rgb(74, 144, 226); stroke-opacity: 1; stroke-width: 1px; fill: none; fill-opacity: 1;"/></g><g class="composite-shape"><path class="real" d=" M301.76,115.51 C301.76,112.28 304.13,109.66 307.06,109.66 C309.98,109.66 312.35,112.28 312.35,115.51 C312.35,118.73 309.98,121.35 307.06,121.35 C304.13,121.35 301.76,118.73 301.76,115.51 Z" style="stroke-width: 1px; stroke: rgb(0, 0, 0); stroke-opacity: 1; fill: rgb(208, 2, 27); fill-opacity: 1;"/></g><g class="arrow-line"><path class="connection real" stroke-dasharray="" d="  M191.53,242.08 L286.82,195.32" style="stroke: rgb(74, 144, 226); stroke-opacity: 1; stroke-width: 1px; fill: none; fill-opacity: 1;"/></g><g class="composite-shape"><path class="real" d=" M232.71,219.29 C232.71,216.06 235.08,213.44 238,213.44 C240.92,213.44 243.29,216.06 243.29,219.29 C243.29,222.51 240.92,225.13 238,225.13 C235.08,225.13 232.71,222.51 232.71,219.29 Z" style="stroke-width: 1px; stroke: rgb(0, 0, 0); stroke-opacity: 1; fill: rgb(208, 2, 27); fill-opacity: 1;"/></g><g class="arrow-line"><path class="connection real" stroke-dasharray="6 6" d="  M238,219.29 L238,265.45" style="stroke: rgb(208, 2, 27); stroke-width: 1px; fill: none; fill-opacity: 1; stroke-opacity: 1;"/></g><g class="arrow-line"><path class="connection real" stroke-dasharray="6 6" d="  M307.06,115.51 L306,264.45" style="stroke: rgb(208, 2, 27); stroke-opacity: 1; stroke-width: 1px; fill: none; fill-opacity: 1;"/></g><g/></g><g/><g/><g/></svg>
        <svg xmlns="http://www.w3.org/2000/svg" xmlns:xlink="http://www.w3.org/1999/xlink" width="660" height="300" style="width:660px;height:300px;font-family:Asana-Math, Asana;background:transparent;"><g><g><g><g><g><g><g transform="matrix(1,0,0,1,135.078125,38.84375)"><path transform="matrix(0.017,0,0,-0.017,0,0)" d="M345 437L329 437L350 549C366 635 394 673 440 673C470 673 497 658 512 634L522 638C527 654 537 685 545 705L550 720C534 727 503 733 480 733C469 733 453 730 445 726C421 715 339 654 316 630C294 608 282 578 271 521L256 442C215 422 195 414 170 405L165 383L246 383L237 327C207 132 170 -54 148 -123C130 -182 100 -213 64 -213C41 -213 30 -206 12 -184L-2 -188C-6 -211 -20 -259 -25 -268C-16 -273 -1 -276 10 -276C51 -276 105 -245 144 -198C215 -114 235 -18 319 383L423 383C427 402 434 425 440 439L436 446C407 439 408 437 345 437Z" stroke="rgb(0,0,0)" stroke-opacity="1" stroke-width="8" fill="rgb(0,0,0)" fill-opacity="1"></path></g></g><g><g transform="matrix(1,0,0,1,144.421875,38.84375)"><path transform="matrix(0.017,0,0,-0.017,0,0)" d="M146 266C146 526 243 632 301 700L282 726C225 675 60 542 60 266C60 159 85 58 133 -32C168 -99 200 -138 282 -215L301 -194C255 -137 146 -15 146 266Z" stroke="rgb(0,0,0)" stroke-opacity="1" stroke-width="8" fill="rgb(0,0,0)" fill-opacity="1"></path></g></g><g><g transform="matrix(1,0,0,1,150.0843505859375,38.84375)"><path transform="matrix(0.017,0,0,-0.017,0,0)" d="M9 1C24 -7 40 -11 52 -11C85 -11 124 18 155 65L231 182L242 113C255 28 278 -11 314 -11C336 -11 368 6 400 35L449 79L440 98C404 68 379 53 363 53C348 53 335 63 325 83C316 102 305 139 300 168L282 269L317 318C364 383 391 406 422 406C438 406 450 398 455 383L469 387L484 472C472 479 463 482 454 482C414 482 374 446 312 354L275 299L269 347C257 446 230 482 171 482C145 482 123 474 114 461L56 378L73 368C103 402 123 416 142 416C175 416 197 375 214 277L225 215L185 153C142 86 108 54 80 54C65 54 54 58 52 63L41 91L21 88C21 53 13 27 9 1Z" stroke="rgb(0,0,0)" stroke-opacity="1" stroke-width="8" fill="rgb(0,0,0)" fill-opacity="1"></path></g></g><g><g transform="matrix(1,0,0,1,158.5625,38.84375)"><path transform="matrix(0.017,0,0,-0.017,0,0)" d="M51 726L32 700C87 636 187 526 187 266C187 -10 83 -131 32 -194L51 -215C104 -165 273 -23 273 265C273 542 108 675 51 726Z" stroke="rgb(0,0,0)" stroke-opacity="1" stroke-width="8" fill="rgb(0,0,0)" fill-opacity="1"></path></g></g></g></g></g></g></g><g><g><g><g><g><g><g transform="matrix(1,0,0,1,407.671875,270.28125)"><path transform="matrix(0.017,0,0,-0.017,0,0)" d="M9 1C24 -7 40 -11 52 -11C85 -11 124 18 155 65L231 182L242 113C255 28 278 -11 314 -11C336 -11 368 6 400 35L449 79L440 98C404 68 379 53 363 53C348 53 335 63 325 83C316 102 305 139 300 168L282 269L317 318C364 383 391 406 422 406C438 406 450 398 455 383L469 387L484 472C472 479 463 482 454 482C414 482 374 446 312 354L275 299L269 347C257 446 230 482 171 482C145 482 123 474 114 461L56 378L73 368C103 402 123 416 142 416C175 416 197 375 214 277L225 215L185 153C142 86 108 54 80 54C65 54 54 58 52 63L41 91L21 88C21 53 13 27 9 1Z" stroke="rgb(0,0,0)" stroke-opacity="1" stroke-width="8" fill="rgb(0,0,0)" fill-opacity="1"></path></g></g></g></g></g></g></g><g><g><g><g><g><g><g transform="matrix(1,0,0,1,201.203125,281.96875)"><path transform="matrix(0.017,0,0,-0.017,0,0)" d="M271 204L242 77C238 60 236 42 236 26C236 4 245 -9 260 -9C283 -9 324 17 406 85L399 106C375 86 346 59 324 59C315 59 309 68 309 82C309 87 309 90 310 93L402 472L392 481L359 463C318 478 301 482 274 482C246 482 226 477 199 464C137 433 104 403 79 354C35 265 4 145 4 67C4 23 19 -11 38 -11C75 -11 155 41 271 204ZM319 414C297 305 278 253 244 201C187 117 126 59 94 59C82 59 76 72 76 99C76 163 104 280 139 360C163 415 186 433 234 433C257 433 275 429 319 414Z" stroke="rgb(0,0,0)" stroke-opacity="1" stroke-width="8" fill="rgb(0,0,0)" fill-opacity="1"></path></g></g></g></g></g></g></g><g><g><g><g><g><g><g transform="matrix(1,0,0,1,367.4375,283.140625)"><path transform="matrix(0.017,0,0,-0.017,0,0)" d="M235 722L223 733C171 707 135 698 63 691L59 670L107 670C131 670 141 663 141 646C141 639 140 628 139 622L38 71C37 68 37 64 37 61C37 22 85 -11 140 -11C177 -11 228 8 271 39C367 107 433 244 433 376C433 414 424 453 412 468C405 477 392 482 377 482C353 482 323 474 295 460C244 433 211 403 149 324ZM322 424C348 424 361 401 361 352C361 288 340 202 310 137C277 68 237 36 183 36C137 36 112 59 112 101C112 135 127 276 208 361C241 395 293 424 322 424Z" stroke="rgb(0,0,0)" stroke-opacity="1" stroke-width="8" fill="rgb(0,0,0)" fill-opacity="1"></path></g></g></g></g></g></g></g><g><g><g><g><g><g><g transform="matrix(1,0,0,1,132.9375,211.84375)"><path transform="matrix(0.017,0,0,-0.017,0,0)" d="M345 437L329 437L350 549C366 635 394 673 440 673C470 673 497 658 512 634L522 638C527 654 537 685 545 705L550 720C534 727 503 733 480 733C469 733 453 730 445 726C421 715 339 654 316 630C294 608 282 578 271 521L256 442C215 422 195 414 170 405L165 383L246 383L237 327C207 132 170 -54 148 -123C130 -182 100 -213 64 -213C41 -213 30 -206 12 -184L-2 -188C-6 -211 -20 -259 -25 -268C-16 -273 -1 -276 10 -276C51 -276 105 -245 144 -198C215 -114 235 -18 319 383L423 383C427 402 434 425 440 439L436 446C407 439 408 437 345 437Z" stroke="rgb(189,16,224)" stroke-opacity="1" stroke-width="8" fill="rgb(189,16,224)" fill-opacity="1"></path></g></g><g><g transform="matrix(1,0,0,1,142.28125,211.84375)"><path transform="matrix(0.017,0,0,-0.017,0,0)" d="M146 266C146 526 243 632 301 700L282 726C225 675 60 542 60 266C60 159 85 58 133 -32C168 -99 200 -138 282 -215L301 -194C255 -137 146 -15 146 266Z" stroke="rgb(189,16,224)" stroke-opacity="1" stroke-width="8" fill="rgb(189,16,224)" fill-opacity="1"></path></g></g><g><g transform="matrix(1,0,0,1,147.9437255859375,211.84375)"><path transform="matrix(0.017,0,0,-0.017,0,0)" d="M271 204L242 77C238 60 236 42 236 26C236 4 245 -9 260 -9C283 -9 324 17 406 85L399 106C375 86 346 59 324 59C315 59 309 68 309 82C309 87 309 90 310 93L402 472L392 481L359 463C318 478 301 482 274 482C246 482 226 477 199 464C137 433 104 403 79 354C35 265 4 145 4 67C4 23 19 -11 38 -11C75 -11 155 41 271 204ZM319 414C297 305 278 253 244 201C187 117 126 59 94 59C82 59 76 72 76 99C76 163 104 280 139 360C163 415 186 433 234 433C257 433 275 429 319 414Z" stroke="rgb(189,16,224)" stroke-opacity="1" stroke-width="8" fill="rgb(189,16,224)" fill-opacity="1"></path></g></g><g><g transform="matrix(1,0,0,1,155.46875,211.84375)"><path transform="matrix(0.017,0,0,-0.017,0,0)" d="M51 726L32 700C87 636 187 526 187 266C187 -10 83 -131 32 -194L51 -215C104 -165 273 -23 273 265C273 542 108 675 51 726Z" stroke="rgb(189,16,224)" stroke-opacity="1" stroke-width="8" fill="rgb(189,16,224)" fill-opacity="1"></path></g></g></g></g></g></g></g><g><g><g><g><g><g><g transform="matrix(1,0,0,1,135.078125,130.015625)"><path transform="matrix(0.017,0,0,-0.017,0,0)" d="M345 437L329 437L350 549C366 635 394 673 440 673C470 673 497 658 512 634L522 638C527 654 537 685 545 705L550 720C534 727 503 733 480 733C469 733 453 730 445 726C421 715 339 654 316 630C294 608 282 578 271 521L256 442C215 422 195 414 170 405L165 383L246 383L237 327C207 132 170 -54 148 -123C130 -182 100 -213 64 -213C41 -213 30 -206 12 -184L-2 -188C-6 -211 -20 -259 -25 -268C-16 -273 -1 -276 10 -276C51 -276 105 -245 144 -198C215 -114 235 -18 319 383L423 383C427 402 434 425 440 439L436 446C407 439 408 437 345 437Z" stroke="rgb(189,16,224)" stroke-opacity="1" stroke-width="8" fill="rgb(189,16,224)" fill-opacity="1"></path></g></g><g><g transform="matrix(1,0,0,1,144.421875,130.015625)"><path transform="matrix(0.017,0,0,-0.017,0,0)" d="M146 266C146 526 243 632 301 700L282 726C225 675 60 542 60 266C60 159 85 58 133 -32C168 -99 200 -138 282 -215L301 -194C255 -137 146 -15 146 266Z" stroke="rgb(189,16,224)" stroke-opacity="1" stroke-width="8" fill="rgb(189,16,224)" fill-opacity="1"></path></g></g><g><g transform="matrix(1,0,0,1,150.0843505859375,130.015625)"><path transform="matrix(0.017,0,0,-0.017,0,0)" d="M235 722L223 733C171 707 135 698 63 691L59 670L107 670C131 670 141 663 141 646C141 639 140 628 139 622L38 71C37 68 37 64 37 61C37 22 85 -11 140 -11C177 -11 228 8 271 39C367 107 433 244 433 376C433 414 424 453 412 468C405 477 392 482 377 482C353 482 323 474 295 460C244 433 211 403 149 324ZM322 424C348 424 361 401 361 352C361 288 340 202 310 137C277 68 237 36 183 36C137 36 112 59 112 101C112 135 127 276 208 361C241 395 293 424 322 424Z" stroke="rgb(189,16,224)" stroke-opacity="1" stroke-width="8" fill="rgb(189,16,224)" fill-opacity="1"></path></g></g><g><g transform="matrix(1,0,0,1,157.9375,130.015625)"><path transform="matrix(0.017,0,0,-0.017,0,0)" d="M51 726L32 700C87 636 187 526 187 266C187 -10 83 -131 32 -194L51 -215C104 -165 273 -23 273 265C273 542 108 675 51 726Z" stroke="rgb(189,16,224)" stroke-opacity="1" stroke-width="8" fill="rgb(189,16,224)" fill-opacity="1"></path></g></g></g></g></g></g></g><g><g><g><g><g><g><g transform="matrix(1,0,0,1,385.96875,142.003125)"><path transform="matrix(0.015300000000000001,0,0,-0.015300000000000001,0,0)" d="M730 103L704 86C675 67 653 56 643 56C636 56 630 65 630 76C630 86 632 95 637 116L712 413C716 430 719 446 719 454C719 471 709 482 693 482C664 482 626 464 565 421C502 376 467 341 418 272L448 409C452 429 455 444 455 451C455 470 445 482 429 482C399 482 353 460 298 418C254 384 234 363 169 275L202 408C206 424 208 439 208 451C208 470 199 482 185 482C164 482 126 461 52 408L24 388L31 368C68 391 103 414 110 414C121 414 128 404 128 389C128 338 87 145 46 2L49 -9L117 6L139 108C163 219 190 278 245 338C287 384 332 414 360 414C367 414 371 406 371 393C371 358 349 244 308 69L292 2L297 -9L366 6L387 113C403 194 437 269 481 318C536 379 586 414 618 414C626 414 631 405 631 389C631 365 628 351 606 264C566 105 550 84 550 31C550 6 561 -9 580 -9C606 -9 642 12 740 85Z" stroke="rgb(74,144,226)" stroke-opacity="1" stroke-width="8" fill="rgb(74,144,226)" fill-opacity="1"></path></g></g><g><g transform="matrix(1,0,0,1,402.201904296875,142.003125)"><path transform="matrix(0.015300000000000001,0,0,-0.015300000000000001,0,0)" d="M604 347L604 406L65 406L65 347ZM604 134L604 193L65 193L65 134Z" stroke="rgb(74,144,226)" stroke-opacity="1" stroke-width="8" fill="rgb(74,144,226)" fill-opacity="1"></path></g></g><g><g><g><g><g transform="matrix(1,0,0,1,418.31561279296875,132.003125)"><path transform="matrix(0.015300000000000001,0,0,-0.015300000000000001,0,0)" d="M345 437L329 437L350 549C366 635 394 673 440 673C470 673 497 658 512 634L522 638C527 654 537 685 545 705L550 720C534 727 503 733 480 733C469 733 453 730 445 726C421 715 339 654 316 630C294 608 282 578 271 521L256 442C215 422 195 414 170 405L165 383L246 383L237 327C207 132 170 -54 148 -123C130 -182 100 -213 64 -213C41 -213 30 -206 12 -184L-2 -188C-6 -211 -20 -259 -25 -268C-16 -273 -1 -276 10 -276C51 -276 105 -245 144 -198C215 -114 235 -18 319 383L423 383C427 402 434 425 440 439L436 446C407 439 408 437 345 437Z" stroke="rgb(74,144,226)" stroke-opacity="1" stroke-width="8" fill="rgb(74,144,226)" fill-opacity="1"></path></g></g><g><g transform="matrix(1,0,0,1,426.5625,132.003125)"><path transform="matrix(0.015300000000000001,0,0,-0.015300000000000001,0,0)" d="M146 266C146 526 243 632 301 700L282 726C225 675 60 542 60 266C60 159 85 58 133 -32C168 -99 200 -138 282 -215L301 -194C255 -137 146 -15 146 266Z" stroke="rgb(74,144,226)" stroke-opacity="1" stroke-width="8" fill="rgb(74,144,226)" fill-opacity="1"></path></g></g><g><g transform="matrix(1,0,0,1,431.54998779296875,132.003125)"><path transform="matrix(0.015300000000000001,0,0,-0.015300000000000001,0,0)" d="M235 722L223 733C171 707 135 698 63 691L59 670L107 670C131 670 141 663 141 646C141 639 140 628 139 622L38 71C37 68 37 64 37 61C37 22 85 -11 140 -11C177 -11 228 8 271 39C367 107 433 244 433 376C433 414 424 453 412 468C405 477 392 482 377 482C353 482 323 474 295 460C244 433 211 403 149 324ZM322 424C348 424 361 401 361 352C361 288 340 202 310 137C277 68 237 36 183 36C137 36 112 59 112 101C112 135 127 276 208 361C241 395 293 424 322 424Z" stroke="rgb(74,144,226)" stroke-opacity="1" stroke-width="8" fill="rgb(74,144,226)" fill-opacity="1"></path></g></g><g><g transform="matrix(1,0,0,1,438.46875,132.003125)"><path transform="matrix(0.015300000000000001,0,0,-0.015300000000000001,0,0)" d="M51 726L32 700C87 636 187 526 187 266C187 -10 83 -131 32 -194L51 -215C104 -165 273 -23 273 265C273 542 108 675 51 726Z" stroke="rgb(74,144,226)" stroke-opacity="1" stroke-width="8" fill="rgb(74,144,226)" fill-opacity="1"></path></g></g><g><g transform="matrix(1,0,0,1,446.51123046875,132.003125)"><path transform="matrix(0.015300000000000001,0,0,-0.015300000000000001,0,0)" d="M555 243L555 299L51 299L51 243Z" stroke="rgb(74,144,226)" stroke-opacity="1" stroke-width="8" fill="rgb(74,144,226)" fill-opacity="1"></path></g></g><g><g transform="matrix(1,0,0,1,458.63311767578125,132.003125)"><path transform="matrix(0.015300000000000001,0,0,-0.015300000000000001,0,0)" d="M345 437L329 437L350 549C366 635 394 673 440 673C470 673 497 658 512 634L522 638C527 654 537 685 545 705L550 720C534 727 503 733 480 733C469 733 453 730 445 726C421 715 339 654 316 630C294 608 282 578 271 521L256 442C215 422 195 414 170 405L165 383L246 383L237 327C207 132 170 -54 148 -123C130 -182 100 -213 64 -213C41 -213 30 -206 12 -184L-2 -188C-6 -211 -20 -259 -25 -268C-16 -273 -1 -276 10 -276C51 -276 105 -245 144 -198C215 -114 235 -18 319 383L423 383C427 402 434 425 440 439L436 446C407 439 408 437 345 437Z" stroke="rgb(74,144,226)" stroke-opacity="1" stroke-width="8" fill="rgb(74,144,226)" fill-opacity="1"></path></g></g><g><g transform="matrix(1,0,0,1,466.875,132.003125)"><path transform="matrix(0.015300000000000001,0,0,-0.015300000000000001,0,0)" d="M146 266C146 526 243 632 301 700L282 726C225 675 60 542 60 266C60 159 85 58 133 -32C168 -99 200 -138 282 -215L301 -194C255 -137 146 -15 146 266Z" stroke="rgb(74,144,226)" stroke-opacity="1" stroke-width="8" fill="rgb(74,144,226)" fill-opacity="1"></path></g></g><g><g transform="matrix(1,0,0,1,471.86749267578125,132.003125)"><path transform="matrix(0.015300000000000001,0,0,-0.015300000000000001,0,0)" d="M271 204L242 77C238 60 236 42 236 26C236 4 245 -9 260 -9C283 -9 324 17 406 85L399 106C375 86 346 59 324 59C315 59 309 68 309 82C309 87 309 90 310 93L402 472L392 481L359 463C318 478 301 482 274 482C246 482 226 477 199 464C137 433 104 403 79 354C35 265 4 145 4 67C4 23 19 -11 38 -11C75 -11 155 41 271 204ZM319 414C297 305 278 253 244 201C187 117 126 59 94 59C82 59 76 72 76 99C76 163 104 280 139 360C163 415 186 433 234 433C257 433 275 429 319 414Z" stroke="rgb(74,144,226)" stroke-opacity="1" stroke-width="8" fill="rgb(74,144,226)" fill-opacity="1"></path></g></g><g><g transform="matrix(1,0,0,1,478.5,132.003125)"><path transform="matrix(0.015300000000000001,0,0,-0.015300000000000001,0,0)" d="M51 726L32 700C87 636 187 526 187 266C187 -10 83 -131 32 -194L51 -215C104 -165 273 -23 273 265C273 542 108 675 51 726Z" stroke="rgb(74,144,226)" stroke-opacity="1" stroke-width="8" fill="rgb(74,144,226)" fill-opacity="1"></path></g></g></g></g><g><g><g><g transform="matrix(1,0,0,1,436.53436279296875,154.003125)"><path transform="matrix(0.015300000000000001,0,0,-0.015300000000000001,0,0)" d="M235 722L223 733C171 707 135 698 63 691L59 670L107 670C131 670 141 663 141 646C141 639 140 628 139 622L38 71C37 68 37 64 37 61C37 22 85 -11 140 -11C177 -11 228 8 271 39C367 107 433 244 433 376C433 414 424 453 412 468C405 477 392 482 377 482C353 482 323 474 295 460C244 433 211 403 149 324ZM322 424C348 424 361 401 361 352C361 288 340 202 310 137C277 68 237 36 183 36C137 36 112 59 112 101C112 135 127 276 208 361C241 395 293 424 322 424Z" stroke="rgb(74,144,226)" stroke-opacity="1" stroke-width="8" fill="rgb(74,144,226)" fill-opacity="1"></path></g></g><g><g transform="matrix(1,0,0,1,446.51123046875,154.003125)"><path transform="matrix(0.015300000000000001,0,0,-0.015300000000000001,0,0)" d="M555 243L555 299L51 299L51 243Z" stroke="rgb(74,144,226)" stroke-opacity="1" stroke-width="8" fill="rgb(74,144,226)" fill-opacity="1"></path></g></g><g><g transform="matrix(1,0,0,1,458.63311767578125,154.003125)"><path transform="matrix(0.015300000000000001,0,0,-0.015300000000000001,0,0)" d="M271 204L242 77C238 60 236 42 236 26C236 4 245 -9 260 -9C283 -9 324 17 406 85L399 106C375 86 346 59 324 59C315 59 309 68 309 82C309 87 309 90 310 93L402 472L392 481L359 463C318 478 301 482 274 482C246 482 226 477 199 464C137 433 104 403 79 354C35 265 4 145 4 67C4 23 19 -11 38 -11C75 -11 155 41 271 204ZM319 414C297 305 278 253 244 201C187 117 126 59 94 59C82 59 76 72 76 99C76 163 104 280 139 360C163 415 186 433 234 433C257 433 275 429 319 414Z" stroke="rgb(74,144,226)" stroke-opacity="1" stroke-width="8" fill="rgb(74,144,226)" fill-opacity="1"></path></g></g></g></g><line style="fill:none;stroke-width:1px;stroke:rgb(74, 144, 226);" x1="418.3125" y1="137.703125" x2="483.5" y2="137.703125"></line></g></g></g></g></g></g><g><g><g><g><g><g><g transform="matrix(1,0,0,1,299.9375,281.96875)"><path transform="matrix(0.017,0,0,-0.017,0,0)" d="M342 330L365 330C373 395 380 432 389 458C365 473 330 482 293 482C248 483 175 463 118 400C64 352 25 241 25 136C25 40 67 -11 147 -11C201 -11 249 9 304 54L354 95L346 115L331 105C259 57 221 40 186 40C130 40 101 80 101 159C101 267 136 371 185 409C206 425 230 433 261 433C306 433 342 414 342 390Z" stroke="rgb(208,2,27)" stroke-opacity="1" stroke-width="8" fill="rgb(208,2,27)" fill-opacity="1"></path></g></g><g><g><g><g><g transform="matrix(1,0,0,1,307.328125,284.978125)"><path transform="matrix(0.0119,0,0,-0.0119,0,0)" d="M16 23L16 -3C203 -3 203 0 239 0C275 0 275 -3 468 -3L468 82C353 77 307 81 122 77L304 270C401 373 431 428 431 503C431 618 353 689 226 689C154 689 105 669 56 619L39 483L68 483L81 529C97 587 133 612 200 612C286 612 341 558 341 473C341 398 299 324 186 204Z" stroke="rgb(208,2,27)" stroke-opacity="1" stroke-width="8" fill="rgb(208,2,27)" fill-opacity="1"></path></g></g></g></g></g></g></g></g></g></g><g><g><g><g><g><g><g transform="matrix(1,0,0,1,229.9375,281.96875)"><path transform="matrix(0.017,0,0,-0.017,0,0)" d="M342 330L365 330C373 395 380 432 389 458C365 473 330 482 293 482C248 483 175 463 118 400C64 352 25 241 25 136C25 40 67 -11 147 -11C201 -11 249 9 304 54L354 95L346 115L331 105C259 57 221 40 186 40C130 40 101 80 101 159C101 267 136 371 185 409C206 425 230 433 261 433C306 433 342 414 342 390Z" stroke="rgb(208,2,27)" stroke-opacity="1" stroke-width="8" fill="rgb(208,2,27)" fill-opacity="1"></path></g></g><g><g><g><g><g transform="matrix(1,0,0,1,237.328125,284.978125)"><path transform="matrix(0.0119,0,0,-0.0119,0,0)" d="M418 -3L418 27L366 30C311 33 301 44 301 96L301 700L60 598L67 548L217 614L217 96C217 44 206 33 152 30L96 27L96 -3C250 0 250 0 261 0C292 0 402 -3 418 -3Z" stroke="rgb(208,2,27)" stroke-opacity="1" stroke-width="8" fill="rgb(208,2,27)" fill-opacity="1"></path></g></g></g></g></g></g></g></g></g></g><g><g><g><g><g><g><g transform="matrix(1,0,0,1,377.578125,83.7375)"><path transform="matrix(0.015300000000000001,0,0,-0.015300000000000001,0,0)" d="M730 103L704 86C675 67 653 56 643 56C636 56 630 65 630 76C630 86 632 95 637 116L712 413C716 430 719 446 719 454C719 471 709 482 693 482C664 482 626 464 565 421C502 376 467 341 418 272L448 409C452 429 455 444 455 451C455 470 445 482 429 482C399 482 353 460 298 418C254 384 234 363 169 275L202 408C206 424 208 439 208 451C208 470 199 482 185 482C164 482 126 461 52 408L24 388L31 368C68 391 103 414 110 414C121 414 128 404 128 389C128 338 87 145 46 2L49 -9L117 6L139 108C163 219 190 278 245 338C287 384 332 414 360 414C367 414 371 406 371 393C371 358 349 244 308 69L292 2L297 -9L366 6L387 113C403 194 437 269 481 318C536 379 586 414 618 414C626 414 631 405 631 389C631 365 628 351 606 264C566 105 550 84 550 31C550 6 561 -9 580 -9C606 -9 642 12 740 85Z" stroke="rgb(74,144,226)" stroke-opacity="1" stroke-width="8" fill="rgb(74,144,226)" fill-opacity="1"></path></g></g><g><g transform="matrix(1,0,0,1,393.811279296875,83.7375)"><path transform="matrix(0.015300000000000001,0,0,-0.015300000000000001,0,0)" d="M604 347L604 406L65 406L65 347ZM604 134L604 193L65 193L65 134Z" stroke="rgb(74,144,226)" stroke-opacity="1" stroke-width="8" fill="rgb(74,144,226)" fill-opacity="1"></path></g></g><g><g transform="matrix(1,0,0,1,408.40936279296875,83.7375)"><path transform="matrix(0.015300000000000001,0,0,-0.015300000000000001,0,0)" d="M345 437L329 437L350 549C366 635 394 673 440 673C470 673 497 658 512 634L522 638C527 654 537 685 545 705L550 720C534 727 503 733 480 733C469 733 453 730 445 726C421 715 339 654 316 630C294 608 282 578 271 521L256 442C215 422 195 414 170 405L165 383L246 383L237 327C207 132 170 -54 148 -123C130 -182 100 -213 64 -213C41 -213 30 -206 12 -184L-2 -188C-6 -211 -20 -259 -25 -268C-16 -273 -1 -276 10 -276C51 -276 105 -245 144 -198C215 -114 235 -18 319 383L423 383C427 402 434 425 440 439L436 446C407 439 408 437 345 437ZM654 470C711 543 749 610 783 696L770 709C734 697 724 694 673 679C667 599 643 533 595 456L610 446Z" stroke="rgb(74,144,226)" stroke-opacity="1" stroke-width="8" fill="rgb(74,144,226)" fill-opacity="1"></path></g></g><g><g transform="matrix(1,0,0,1,420.8125,83.7375)"><path transform="matrix(0.015300000000000001,0,0,-0.015300000000000001,0,0)" d="M146 266C146 526 243 632 301 700L282 726C225 675 60 542 60 266C60 159 85 58 133 -32C168 -99 200 -138 282 -215L301 -194C255 -137 146 -15 146 266Z" stroke="rgb(74,144,226)" stroke-opacity="1" stroke-width="8" fill="rgb(74,144,226)" fill-opacity="1"></path></g></g><g><g transform="matrix(1,0,0,1,425.79876708984375,83.7375)"><path transform="matrix(0.015300000000000001,0,0,-0.015300000000000001,0,0)" d="M342 330L365 330C373 395 380 432 389 458C365 473 330 482 293 482C248 483 175 463 118 400C64 352 25 241 25 136C25 40 67 -11 147 -11C201 -11 249 9 304 54L354 95L346 115L331 105C259 57 221 40 186 40C130 40 101 80 101 159C101 267 136 371 185 409C206 425 230 433 261 433C306 433 342 414 342 390Z" stroke="rgb(74,144,226)" stroke-opacity="1" stroke-width="8" fill="rgb(74,144,226)" fill-opacity="1"></path></g></g><g><g><g><g><g transform="matrix(1,0,0,1,432.328125,86.44437500000001)"><path transform="matrix(0.01071,0,0,-0.01071,0,0)" d="M16 23L16 -3C203 -3 203 0 239 0C275 0 275 -3 468 -3L468 82C353 77 307 81 122 77L304 270C401 373 431 428 431 503C431 618 353 689 226 689C154 689 105 669 56 619L39 483L68 483L81 529C97 587 133 612 200 612C286 612 341 558 341 473C341 398 299 324 186 204Z" stroke="rgb(74,144,226)" stroke-opacity="1" stroke-width="8" fill="rgb(74,144,226)" fill-opacity="1"></path></g></g></g></g></g><g><g transform="matrix(1,0,0,1,438.734375,83.7375)"><path transform="matrix(0.015300000000000001,0,0,-0.015300000000000001,0,0)" d="M51 726L32 700C87 636 187 526 187 266C187 -10 83 -131 32 -194L51 -215C104 -165 273 -23 273 265C273 542 108 675 51 726Z" stroke="rgb(74,144,226)" stroke-opacity="1" stroke-width="8" fill="rgb(74,144,226)" fill-opacity="1"></path></g></g></g></g></g></g></g><g><g><g><g><g><g><g transform="matrix(1,0,0,1,102,245.3)"><path transform="matrix(0.015300000000000001,0,0,-0.015300000000000001,0,0)" d="M730 103L704 86C675 67 653 56 643 56C636 56 630 65 630 76C630 86 632 95 637 116L712 413C716 430 719 446 719 454C719 471 709 482 693 482C664 482 626 464 565 421C502 376 467 341 418 272L448 409C452 429 455 444 455 451C455 470 445 482 429 482C399 482 353 460 298 418C254 384 234 363 169 275L202 408C206 424 208 439 208 451C208 470 199 482 185 482C164 482 126 461 52 408L24 388L31 368C68 391 103 414 110 414C121 414 128 404 128 389C128 338 87 145 46 2L49 -9L117 6L139 108C163 219 190 278 245 338C287 384 332 414 360 414C367 414 371 406 371 393C371 358 349 244 308 69L292 2L297 -9L366 6L387 113C403 194 437 269 481 318C536 379 586 414 618 414C626 414 631 405 631 389C631 365 628 351 606 264C566 105 550 84 550 31C550 6 561 -9 580 -9C606 -9 642 12 740 85Z" stroke="rgb(74,144,226)" stroke-opacity="1" stroke-width="8" fill="rgb(74,144,226)" fill-opacity="1"></path></g></g><g><g transform="matrix(1,0,0,1,118.233154296875,245.3)"><path transform="matrix(0.015300000000000001,0,0,-0.015300000000000001,0,0)" d="M604 347L604 406L65 406L65 347ZM604 134L604 193L65 193L65 134Z" stroke="rgb(74,144,226)" stroke-opacity="1" stroke-width="8" fill="rgb(74,144,226)" fill-opacity="1"></path></g></g><g><g transform="matrix(1,0,0,1,132.83123779296875,245.3)"><path transform="matrix(0.015300000000000001,0,0,-0.015300000000000001,0,0)" d="M345 437L329 437L350 549C366 635 394 673 440 673C470 673 497 658 512 634L522 638C527 654 537 685 545 705L550 720C534 727 503 733 480 733C469 733 453 730 445 726C421 715 339 654 316 630C294 608 282 578 271 521L256 442C215 422 195 414 170 405L165 383L246 383L237 327C207 132 170 -54 148 -123C130 -182 100 -213 64 -213C41 -213 30 -206 12 -184L-2 -188C-6 -211 -20 -259 -25 -268C-16 -273 -1 -276 10 -276C51 -276 105 -245 144 -198C215 -114 235 -18 319 383L423 383C427 402 434 425 440 439L436 446C407 439 408 437 345 437ZM654 470C711 543 749 610 783 696L770 709C734 697 724 694 673 679C667 599 643 533 595 456L610 446Z" stroke="rgb(74,144,226)" stroke-opacity="1" stroke-width="8" fill="rgb(74,144,226)" fill-opacity="1"></path></g></g><g><g transform="matrix(1,0,0,1,145.234375,245.3)"><path transform="matrix(0.015300000000000001,0,0,-0.015300000000000001,0,0)" d="M146 266C146 526 243 632 301 700L282 726C225 675 60 542 60 266C60 159 85 58 133 -32C168 -99 200 -138 282 -215L301 -194C255 -137 146 -15 146 266Z" stroke="rgb(74,144,226)" stroke-opacity="1" stroke-width="8" fill="rgb(74,144,226)" fill-opacity="1"></path></g></g><g><g transform="matrix(1,0,0,1,150.22064208984375,245.3)"><path transform="matrix(0.015300000000000001,0,0,-0.015300000000000001,0,0)" d="M342 330L365 330C373 395 380 432 389 458C365 473 330 482 293 482C248 483 175 463 118 400C64 352 25 241 25 136C25 40 67 -11 147 -11C201 -11 249 9 304 54L354 95L346 115L331 105C259 57 221 40 186 40C130 40 101 80 101 159C101 267 136 371 185 409C206 425 230 433 261 433C306 433 342 414 342 390Z" stroke="rgb(74,144,226)" stroke-opacity="1" stroke-width="8" fill="rgb(74,144,226)" fill-opacity="1"></path></g></g><g><g><g><g><g transform="matrix(1,0,0,1,156.75,248.006875)"><path transform="matrix(0.01071,0,0,-0.01071,0,0)" d="M418 -3L418 27L366 30C311 33 301 44 301 96L301 700L60 598L67 548L217 614L217 96C217 44 206 33 152 30L96 27L96 -3C250 0 250 0 261 0C292 0 402 -3 418 -3Z" stroke="rgb(74,144,226)" stroke-opacity="1" stroke-width="8" fill="rgb(74,144,226)" fill-opacity="1"></path></g></g></g></g></g><g><g transform="matrix(1,0,0,1,163.15625,245.3)"><path transform="matrix(0.015300000000000001,0,0,-0.015300000000000001,0,0)" d="M51 726L32 700C87 636 187 526 187 266C187 -10 83 -131 32 -194L51 -215C104 -165 273 -23 273 265C273 542 108 675 51 726Z" stroke="rgb(74,144,226)" stroke-opacity="1" stroke-width="8" fill="rgb(74,144,226)" fill-opacity="1"></path></g></g></g></g></g></g></g></svg>
</svg>
